<?xml version="1.0" encoding="utf-8"?>
<!-- Generator: Adobe Illustrator 19.0.0, SVG Export Plug-In . SVG Version: 6.00 Build 0)  -->
<svg version="1.2" baseProfile="tiny" id="图层_1"
	 xmlns="http://www.w3.org/2000/svg" xmlns:xlink="http://www.w3.org/1999/xlink" x="0px" y="0px" width="160px" height="50px"
	 viewBox="0 0 160 50" xml:space="preserve">
<g id="XMLID_1480_">
	<path id="XMLID_2170_" fill="#E60012" d="M18.8,11.2c0.5-1.4-1.9-2.6-2.7-1.2c-1.6,2.9-3.9,6.4-5.6,9.2c-1.4,2.3-4.2,6.8-6.3,6
		c-1.4-0.5-0.3-3.2,0.4-5c1.1-2.8,3.1-8.1,4.8-12.6c1.4-3.7,0.7-5.9-1.4-6.8C6.9,0.3,5.8,0,4.9,0C4.7,0,4.5,0.1,4.5,0.3L4.3,1.2
		c0,0.2,0,0.3,0.2,0.4C6.4,3,6.9,4.4,6.3,6.6C5.4,9.8,1.6,18.8,0.7,21.5c-1.8,5,0.4,7.6,3.2,7.7c4.7,0.2,8.9-8.8,8.9-8.8
		C11,25.1,8,32.3,7.4,42.5C7.1,47.8,7.2,50,9.5,50c2.5,0,2-3.9,1.9-6.8C11.2,27.2,18,13.2,18.8,11.2z"/>
	<path id="XMLID_2166_" fill="#E60012" d="M43.4,15c1.6-3,2.8-9.6-2.9-9.6c-1.8,0-3.9,1.4-4.3,4.1c-0.3,2.5,0.4,5.3,4.2,7.3
		c-2.8,5.3-6.3,9.3-12.5,10.2c-3.3,0.5-5.8-1.2-6.3-2.6c3.4,0.4,7.5-0.4,9.3-3.5c2.4-4.1-2-7.7-6.8-6.2c-2.1,0.7-4.4,2.6-5.4,4.7
		c-1,2-0.9,4.6,0,6.3c1.5,2.9,5.3,5,10.9,4c5.8-1.1,10.7-6.7,12.9-12c3.8,1.5,5.7,2.9,5.8,4.5c0.2,1.6-1.1,4.3-5.6,3.2
		c-2.3-0.6-3.3,0.1-3.5,1c-0.1,0.4,0.2,0.7,0.5,0.8c9,3.5,12.4-2.4,11.7-5.6C50.8,18.9,48.7,16.9,43.4,15z M24.8,17.7
		c1.6-0.6,3.1-0.1,3.1,1.2c0,2.4-4.3,3.5-6.7,2.8C21.2,21.3,21.9,18.8,24.8,17.7z M41.3,14.2c-4-2.2-2.8-6.2-0.7-6.2
		C43.5,8.1,41.7,13.6,41.3,14.2z"/>
	
		<rect id="XMLID_2165_" x="58" y="34.9" transform="matrix(-0.7515 -0.6597 0.6597 -0.7515 78.5374 102.0144)" fill="#727171" width="1" height="2.7"/>
	<polygon id="XMLID_2164_" fill="#727171" points="57.1,39.8 57.8,40.4 58.5,39.7 58.5,45.4 59.5,45.4 59.5,38.3 58.6,38 	"/>
	<path id="XMLID_2163_" fill="#727171" d="M64.7,35.5h-1v2.1c0,0.1-0.1,0.2-0.2,0.2H63v-2.7h-1v2.7h-0.4c-0.1,0-0.2-0.1-0.2-0.2
		v-2.1h-1v2.1c0,0.7,0.6,1.2,1.2,1.2h1.9c0.7,0,1.2-0.6,1.2-1.2V35.5z"/>
	<rect id="XMLID_2162_" x="60.3" y="39.4" fill="#727171" width="4.4" height="1"/>
	<path id="XMLID_2161_" fill="#727171" d="M64.8,42.6l-0.6,0.7V42c0-0.5-0.4-1-1-1h-1.7c-0.6,0-1,0.5-1,1c0,1-0.2,1.9-0.8,2.7
		l0.8,0.6c0.7-1,1-2.1,1-3.3c0,0,0,0,0,0h1.6c0,0,0,0,0,0v2.8c0,0.2,0.1,0.4,0.3,0.5c0.1,0,0.1,0,0.2,0c0.2,0,0.3-0.1,0.4-0.2
		l1.5-1.8L64.8,42.6z"/>
	<path id="XMLID_2160_" fill="#727171" d="M68.7,37.5h0.5v-1h-2.4l0.8-0.9l-0.8-0.7l-1.6,1.8l0.4,0.9h2c-0.1,1.4-0.3,2.6-0.6,3.5
		c-0.3-0.8-0.5-1.7-0.5-2.7h-1c0,1.5,0.5,2.9,1,4C65.8,44,65,44.8,65,44.8l0.8,0.7c0,0,0.7-0.6,1.4-1.9c0.8,1.2,1.5,1.9,1.5,1.9
		l0.8-0.6c0,0-1-1-1.9-2.5C68.2,41.1,68.6,39.5,68.7,37.5z"/>
	<path id="XMLID_2159_" fill="#727171" d="M79.7,34.5L78.8,35l0.3,0.5h-3.2c-0.9,0-1.7,0.7-1.7,1.6v4.8c0,1-0.2,2-0.8,2.9l0.8,0.6
		c0.8-1,1.1-2.3,1.1-3.5v-4.8c0-0.3,0.3-0.6,0.7-0.6h8.7v-1h-4.4L79.7,34.5z"/>
	<path id="XMLID_2156_" fill="#727171" d="M76.7,37.2v0.5h-1.1v1h1.1V39c0,0.9,0.8,1.5,1.7,1.5h3.2c1,0,1.7-0.7,1.7-1.5v-0.3h1.1v-1
		h-1.1v-0.5h-1v0.5h-4.6v-0.5H76.7z M82.4,38.7V39c0,0.3-0.3,0.5-0.7,0.5h-3.2c-0.4,0-0.7-0.2-0.7-0.5v-0.3H82.4z"/>
	<path id="XMLID_2153_" fill="#727171" d="M83.8,42.1c0-0.5-0.5-1-1.1-1h-2.7h-2.7c-0.6,0-1.1,0.4-1.1,1c0,0.6,0.7,1.2,2.2,1.8
		c-0.8,0.2-1.8,0.4-2.8,0.5l0.1,1c1.5-0.2,3-0.5,4.3-0.9c1.3,0.4,2.8,0.7,4.3,0.9l0.1-1c-1-0.1-2-0.3-2.8-0.5
		C83.1,43.3,83.8,42.7,83.8,42.1z M77.4,42.1h2.6h2.6c-0.3,0.3-1.2,0.8-2.6,1.3C78.6,42.9,77.7,42.4,77.4,42.1z"/>
	<rect id="XMLID_2152_" x="106.2" y="38.6" fill="#727171" width="6.7" height="1"/>
	<path id="XMLID_2151_" fill="#727171" d="M110.8,35.5h-2.4c-0.4,0-0.9,0.1-1.2,0.4l-3.5,3l0.7,0.8l3.5-3c0.1-0.1,0.3-0.2,0.5-0.2
		h2.4c0.2,0,0.4,0.1,0.5,0.2l3.5,3l0.7-0.8l-3.5-3C111.6,35.7,111.2,35.5,110.8,35.5z"/>
	<path id="XMLID_2148_" fill="#727171" d="M112.7,40.7h-6.2c-0.7,0-1.2,0.6-1.2,1.2v2.3c0,0.7,0.6,1.2,1.2,1.2h6.2
		c0.7,0,1.2-0.6,1.2-1.2v-2.3C113.9,41.3,113.4,40.7,112.7,40.7z M112.9,44.2c0,0.1-0.1,0.2-0.2,0.2h-6.2c-0.1,0-0.2-0.1-0.2-0.2
		v-2.3c0-0.1,0.1-0.2,0.2-0.2h6.2c0.1,0,0.2,0.1,0.2,0.2V44.2z"/>
	<path id="XMLID_2147_" fill="#727171" d="M123.6,35.5l-1.7,0c0,0,0,0,0,0c-0.5,0-1,0.2-1.4,0.6l-1.6,1.9l0.8,0.7l1.6-1.9
		c0.1-0.2,0.4-0.2,0.6-0.2l1.7,0c0.2,0,0.5,0.1,0.6,0.2l1.6,1.9l0.8-0.7l-1.6-1.9C124.7,35.8,124.2,35.5,123.6,35.5z"/>
	<path id="XMLID_2146_" fill="#727171" d="M123,44.4h-1.6c-0.1,0-0.2-0.1-0.2-0.2v-4.5c0,0,0.1-0.1,0.2-0.1h2.7
		c0.1,0,0.2,0.1,0.2,0.2v1.4c0,0.1-0.1,0.2-0.2,0.2h-1.8v1h1.8c0.7,0,1.2-0.6,1.2-1.2v-1.4c0-0.7-0.6-1.2-1.2-1.2h-2.7
		c-0.7,0-1.2,0.5-1.2,1.1v4.5c0,0.7,0.6,1.2,1.2,1.2h1.6c2.3,0,3.3-1.5,3.3-1.6l-0.9-0.5C125.4,43.4,124.7,44.4,123,44.4z"/>
	<rect id="XMLID_2145_" x="127.2" y="36.4" fill="#727171" width="1" height="6.8"/>
	<path id="XMLID_2144_" fill="#727171" d="M129.7,43.8c0,0.3-0.3,0.6-0.7,0.6h-1.8v1h1.8c0.9,0,1.7-0.7,1.7-1.6v-8.3h-1V43.8z"/>
	<polygon id="XMLID_2143_" fill="#727171" points="141.6,35.5 140.6,35.5 140.6,44.4 138.3,44.4 138.3,35.5 137.3,35.5 137.3,44.4 
		134.1,44.4 134.1,45.4 144.8,45.4 144.8,44.4 141.6,44.4 	"/>
	<path id="XMLID_2142_" fill="#727171" d="M136.6,42.9c-1-2.5-1.4-6-1.4-6.1l-1,0.1c0,0.1,0.5,3.7,1.5,6.3L136.6,42.9z"/>
	<path id="XMLID_2141_" fill="#727171" d="M143.7,36.8c0,0-0.4,3.6-1.4,6.1l1,0.4c1-2.6,1.4-6.2,1.5-6.3L143.7,36.8z"/>
	<polygon id="XMLID_2140_" fill="#727171" points="157,38.3 159.5,38.3 159.5,37.3 157,37.3 157,35.5 155.9,35.5 155.9,37.3 
		153.4,37.3 153.4,38.3 155.9,38.3 155.9,44.4 152.9,44.4 152.9,45.4 160,45.4 160,44.4 157,44.4 	"/>
	<path id="XMLID_2139_" fill="#727171" d="M151.5,39.9l0.8-0.8c0.4-0.4,0.6-1.1,0.4-1.6c-0.1-0.3-0.5-0.9-1.6-0.9h0l-0.6-1.1
		l-0.9,0.5l0.4,0.7h-1.4v1h2.6c0.3,0,0.6,0.1,0.7,0.3c0.1,0.2,0,0.4-0.1,0.5l-3.4,3.4l0.7,0.7l1.3-1.3v4.3h1v-4.3l1,1l0.7-0.7
		L151.5,39.9z"/>
	<path id="XMLID_2134_" fill="#727171" d="M93.4,42.6h-0.9v-6h0.9v-1h-5.1v1h0.5v5.8c0,0.7,0.6,1.2,1.2,1.2h1.4v1.8h1v-1.8h0.9V42.6
		z M91.5,42.6h-1.4c-0.1,0-0.2-0.1-0.2-0.2v-1.3h1.6V42.6z M91.5,40.1h-1.6v-1.2h1.6V40.1z M91.5,37.8h-1.6v-1.3h1.6V37.8z"/>
	<path id="XMLID_2133_" fill="#727171" d="M97.3,40.7h2.6v-1h-2.6v-2h2.5v-1h-1.3l0.6-1.1L98,35.1l-0.8,1.6h-1l-0.8-1.6l-0.9,0.5
		l0.6,1.1h-1.3v1h2.5v2h-2.6v1h2.6c-0.6,2.5-2.7,3.8-2.8,3.9l0.7,0.8c0.1-0.1,1.8-1.2,2.8-3.2c1,2.1,2.7,3.1,2.9,3.2l0.7-0.8
		C100.1,44.6,98,43.3,97.3,40.7z"/>
	<path id="XMLID_2132_" fill="#727171" d="M105.7,28.3v-2.8H90.2c-1.8,0-3.2-1.2-3.2-2.7v-2.6v-0.3v-3.3c0-1.5,1.4-2.7,3.2-2.7h10.4
		c1.6,0,2.9,1.1,2.9,2.4s-1.3,2.4-2.9,2.4h-0.2H90.1v2.8h10.4h0.2h0.2v0c3-0.1,5.5-2.4,5.5-5.2c0-2.8-2.5-5.2-5.6-5.2H90.2
		c-3.3,0-6,2.4-6,5.5v3.3v0.3v2.6c0,3,2.7,5.5,6,5.5H105.7z"/>
	<path id="XMLID_1526_" fill="#727171" d="M126,11.1h-13.2c-1.1,0-2,0.9-2,2v13.1c0,1.1,0.9,2,2,2H126c3.7,0,6.8-3,6.8-6.8v-3.6
		C132.8,14.2,129.8,11.1,126,11.1z M130.1,21.5c0,2.2-1.8,4-4,4h-12.5V13.9H126c2.2,0,4,1.8,4,4V21.5z"/>
	<path id="XMLID_1525_" fill="#727171" d="M63.4,28.3c2,0,3.8-0.9,5-2.4c1.2,1.5,3,2.4,5,2.4c3.5,0,6.4-2.9,6.4-6.4V11.1H77v10.8
		c0,2-1.6,3.6-3.6,3.6s-3.6-1.6-3.6-3.6v-8H67v8c0,2-1.6,3.6-3.6,3.6c-2,0-3.6-1.6-3.6-3.6V11.1h-2.8v10.8
		C57.1,25.4,59.9,28.3,63.4,28.3z"/>
	<path id="XMLID_1522_" fill="#727171" d="M153.2,11.1h-9.1c-3.7,0-6.8,3-6.8,6.8v3.6c0,3.7,3,6.8,6.8,6.8h9.1c3.7,0,6.8-3,6.8-6.8
		v-3.6C160,14.2,157,11.1,153.2,11.1z M157.2,21.5c0,2.2-1.8,4-4,4h-9.1c-2.2,0-4-1.8-4-4v-3.6c0-2.2,1.8-4,4-4h9.1c2.2,0,4,1.8,4,4
		V21.5z"/>
</g>
</svg>
