<?xml version="1.0" encoding="utf-8"?>
<!-- Generator: Adobe Illustrator 19.0.0, SVG Export Plug-In . SVG Version: 6.00 Build 0)  -->
<svg version="1.1" id="图层_1" xmlns="http://www.w3.org/2000/svg" xmlns:xlink="http://www.w3.org/1999/xlink" x="0px" y="0px"
	 width="160px" height="50px" viewBox="-2329 2384.9 160 50" style="enable-background:new -2329 2384.9 160 50;"
	 xml:space="preserve">
<style type="text/css">
	.st0{fill:#FFFFFF;}
	.st1{fill:#E60012;}
</style>
<g id="XMLID_3285_">
	<g id="XMLID_588_">
		
			<rect id="XMLID_631_" x="-2271" y="2419.7" transform="matrix(0.7515 0.6597 -0.6597 0.7515 1033.0366 2099.4873)" class="st0" width="1" height="2.7"/>
		<polygon id="XMLID_630_" class="st0" points="-2271.9,2424.7 -2271.2,2425.3 -2270.5,2424.6 -2270.5,2430.3 -2269.5,2430.3 
			-2269.5,2423.2 -2270.4,2422.9 		"/>
		<path id="XMLID_629_" class="st0" d="M-2264.3,2420.4h-1v2.1c0,0.1-0.1,0.2-0.2,0.2h-0.5v-2.7h-1v2.7h-0.4c-0.1,0-0.2-0.1-0.2-0.2
			v-2.1h-1v2.1c0,0.7,0.6,1.2,1.2,1.2h1.9c0.7,0,1.2-0.6,1.2-1.2V2420.4z"/>
		<rect id="XMLID_628_" x="-2268.7" y="2424.3" class="st0" width="4.4" height="1"/>
		<path id="XMLID_627_" class="st0" d="M-2264.2,2427.5l-0.6,0.7v-1.3c0-0.5-0.4-1-1-1h-1.7c-0.6,0-1,0.5-1,1c0,1-0.2,1.9-0.8,2.7
			l0.8,0.6c0.7-1,1-2.1,1-3.3l0,0h1.6l0,0v2.8c0,0.2,0.1,0.4,0.3,0.5c0.1,0,0.1,0,0.2,0c0.2,0,0.3-0.1,0.4-0.2l1.5-1.8
			L-2264.2,2427.5z"/>
		<path id="XMLID_626_" class="st0" d="M-2260.3,2422.4h0.5v-1h-2.4l0.8-0.9l-0.8-0.7l-1.6,1.8l0.4,0.9h2c-0.1,1.4-0.3,2.6-0.6,3.5
			c-0.3-0.8-0.5-1.7-0.5-2.7h-1c0,1.5,0.5,2.9,1,4c-0.7,1.6-1.5,2.4-1.5,2.4l0.8,0.7c0,0,0.7-0.6,1.4-1.9c0.8,1.2,1.5,1.9,1.5,1.9
			l0.8-0.6c0,0-1-1-1.9-2.5C-2260.8,2426-2260.4,2424.4-2260.3,2422.4z"/>
		<path id="XMLID_625_" class="st0" d="M-2249.3,2419.4l-0.9,0.5l0.3,0.5h-3.2c-0.9,0-1.7,0.7-1.7,1.6v4.8c0,1-0.2,2-0.8,2.9
			l0.8,0.6c0.8-1,1.1-2.3,1.1-3.5v-4.8c0-0.3,0.3-0.6,0.7-0.6h8.7v-1h-4.4L-2249.3,2419.4z"/>
		<path id="XMLID_622_" class="st0" d="M-2252.3,2422.1v0.5h-1.1v1h1.1v0.3c0,0.9,0.8,1.5,1.7,1.5h3.2c1,0,1.7-0.7,1.7-1.5v-0.3h1.1
			v-1h-1.1v-0.5h-1v0.5h-4.6v-0.5H-2252.3z M-2246.6,2423.6v0.3c0,0.3-0.3,0.5-0.7,0.5h-3.2c-0.4,0-0.7-0.2-0.7-0.5v-0.3H-2246.6z"
			/>
		<path id="XMLID_619_" class="st0" d="M-2245.2,2427c0-0.5-0.5-1-1.1-1h-2.7h-2.7c-0.6,0-1.1,0.4-1.1,1s0.7,1.2,2.2,1.8
			c-0.8,0.2-1.8,0.4-2.8,0.5l0.1,1c1.5-0.2,3-0.5,4.3-0.9c1.3,0.4,2.8,0.7,4.3,0.9l0.1-1c-1-0.1-2-0.3-2.8-0.5
			C-2245.9,2428.2-2245.2,2427.6-2245.2,2427z M-2251.6,2427h2.6h2.6c-0.3,0.3-1.2,0.8-2.6,1.3
			C-2250.4,2427.8-2251.3,2427.3-2251.6,2427z"/>
		<rect id="XMLID_618_" x="-2222.8" y="2423.5" class="st0" width="6.7" height="1"/>
		<path id="XMLID_617_" class="st0" d="M-2218.2,2420.4h-2.4c-0.4,0-0.9,0.1-1.2,0.4l-3.5,3l0.7,0.8l3.5-3c0.1-0.1,0.3-0.2,0.5-0.2
			h2.4c0.2,0,0.4,0.1,0.5,0.2l3.5,3l0.7-0.8l-3.5-3C-2217.4,2420.6-2217.8,2420.4-2218.2,2420.4z"/>
		<path id="XMLID_614_" class="st0" d="M-2216.3,2425.6h-6.2c-0.7,0-1.2,0.6-1.2,1.2v2.3c0,0.7,0.6,1.2,1.2,1.2h6.2
			c0.7,0,1.2-0.6,1.2-1.2v-2.3C-2215.1,2426.2-2215.6,2425.6-2216.3,2425.6z M-2216.1,2429.1c0,0.1-0.1,0.2-0.2,0.2h-6.2
			c-0.1,0-0.2-0.1-0.2-0.2v-2.3c0-0.1,0.1-0.2,0.2-0.2h6.2c0.1,0,0.2,0.1,0.2,0.2V2429.1z"/>
		<path id="XMLID_613_" class="st0" d="M-2205.4,2420.4h-1.7l0,0c-0.5,0-1,0.2-1.4,0.6l-1.6,1.9l0.8,0.7l1.6-1.9
			c0.1-0.2,0.4-0.2,0.6-0.2h1.7c0.2,0,0.5,0.1,0.6,0.2l1.6,1.9l0.8-0.7l-1.6-1.9C-2204.3,2420.7-2204.8,2420.4-2205.4,2420.4z"/>
		<path id="XMLID_612_" class="st0" d="M-2206,2429.3h-1.6c-0.1,0-0.2-0.1-0.2-0.2v-4.5c0,0,0.1-0.1,0.2-0.1h2.7
			c0.1,0,0.2,0.1,0.2,0.2v1.4c0,0.1-0.1,0.2-0.2,0.2h-1.8v1h1.8c0.7,0,1.2-0.6,1.2-1.2v-1.4c0-0.7-0.6-1.2-1.2-1.2h-2.7
			c-0.7,0-1.2,0.5-1.2,1.1v4.5c0,0.7,0.6,1.2,1.2,1.2h1.6c2.3,0,3.3-1.5,3.3-1.6l-0.9-0.5C-2203.6,2428.3-2204.3,2429.3-2206,2429.3
			z"/>
		<rect id="XMLID_611_" x="-2201.8" y="2421.3" class="st0" width="1" height="6.8"/>
		<path id="XMLID_608_" class="st0" d="M-2199.3,2428.7c0,0.3-0.3,0.6-0.7,0.6h-1.8v1h1.8c0.9,0,1.7-0.7,1.7-1.6v-8.3h-1V2428.7z"/>
		<polygon id="XMLID_607_" class="st0" points="-2187.4,2420.4 -2188.4,2420.4 -2188.4,2429.3 -2190.7,2429.3 -2190.7,2420.4 
			-2191.7,2420.4 -2191.7,2429.3 -2194.9,2429.3 -2194.9,2430.3 -2184.2,2430.3 -2184.2,2429.3 -2187.4,2429.3 		"/>
		<path id="XMLID_606_" class="st0" d="M-2192.4,2427.8c-1-2.5-1.4-6-1.4-6.1l-1,0.1c0,0.1,0.5,3.7,1.5,6.3L-2192.4,2427.8z"/>
		<path id="XMLID_605_" class="st0" d="M-2185.3,2421.7c0,0-0.4,3.6-1.4,6.1l1,0.4c1-2.6,1.4-6.2,1.5-6.3L-2185.3,2421.7z"/>
		<polygon id="XMLID_604_" class="st0" points="-2172,2423.2 -2169.5,2423.2 -2169.5,2422.2 -2172,2422.2 -2172,2420.4 
			-2173.1,2420.4 -2173.1,2422.2 -2175.6,2422.2 -2175.6,2423.2 -2173.1,2423.2 -2173.1,2429.3 -2176.1,2429.3 -2176.1,2430.3 
			-2169,2430.3 -2169,2429.3 -2172,2429.3 		"/>
		<path id="XMLID_603_" class="st0" d="M-2177.5,2424.8l0.8-0.8c0.4-0.4,0.6-1.1,0.4-1.6c-0.1-0.3-0.5-0.9-1.6-0.9l0,0l-0.6-1.1
			l-0.9,0.5l0.4,0.7h-1.4v1h2.6c0.3,0,0.6,0.1,0.7,0.3c0.1,0.2,0,0.4-0.1,0.5l-3.4,3.4l0.7,0.7l1.3-1.3v4.3h1v-4.3l1,1l0.7-0.7
			L-2177.5,2424.8z"/>
		<path id="XMLID_598_" class="st0" d="M-2235.6,2427.5h-0.9v-6h0.9v-1h-5.1v1h0.5v5.8c0,0.7,0.6,1.2,1.2,1.2h1.4v1.8h1v-1.8h0.9
			L-2235.6,2427.5L-2235.6,2427.5z M-2237.5,2427.5h-1.4c-0.1,0-0.2-0.1-0.2-0.2v-1.3h1.6V2427.5z M-2237.5,2425h-1.6v-1.2h1.6V2425
			z M-2237.5,2422.7h-1.6v-1.3h1.6V2422.7z"/>
		<path id="XMLID_597_" class="st0" d="M-2231.7,2425.6h2.6v-1h-2.6v-2h2.5v-1h-1.3l0.6-1.1l-1.1-0.5l-0.8,1.6h-1l-0.8-1.6l-0.9,0.5
			l0.6,1.1h-1.3v1h2.5v2h-2.6v1h2.6c-0.6,2.5-2.7,3.8-2.8,3.9l0.7,0.8c0.1-0.1,1.8-1.2,2.8-3.2c1,2.1,2.7,3.1,2.9,3.2l0.7-0.8
			C-2228.9,2429.5-2231,2428.2-2231.7,2425.6z"/>
		<path id="XMLID_596_" class="st0" d="M-2223.3,2413.2v-2.8h-15.5c-1.8,0-3.2-1.2-3.2-2.7v-2.6v-0.3v-3.3c0-1.5,1.4-2.7,3.2-2.7
			h10.4c1.6,0,2.9,1.1,2.9,2.4s-1.3,2.4-2.9,2.4h-0.2h-10.3v2.8h10.4h0.2h0.2l0,0c3-0.1,5.5-2.4,5.5-5.2s-2.5-5.2-5.6-5.2h-10.6
			c-3.3,0-6,2.4-6,5.5v3.3v0.3v2.6c0,3,2.7,5.5,6,5.5C-2238.8,2413.2-2223.3,2413.2-2223.3,2413.2z"/>
		<path id="XMLID_593_" class="st0" d="M-2203,2396h-13.2c-1.1,0-2,0.9-2,2v13.1c0,1.1,0.9,2,2,2h13.2c3.7,0,6.8-3,6.8-6.8v-3.6
			C-2196.2,2399.1-2199.2,2396-2203,2396z M-2198.9,2406.4c0,2.2-1.8,4-4,4h-12.5v-11.6h12.4c2.2,0,4,1.8,4,4v3.6H-2198.9z"/>
		<path id="XMLID_592_" class="st0" d="M-2265.6,2413.2c2,0,3.8-0.9,5-2.4c1.2,1.5,3,2.4,5,2.4c3.5,0,6.4-2.9,6.4-6.4V2396h-2.8
			v10.8c0,2-1.6,3.6-3.6,3.6s-3.6-1.6-3.6-3.6v-8h-2.8v8c0,2-1.6,3.6-3.6,3.6s-3.6-1.6-3.6-3.6V2396h-2.8v10.8
			C-2271.9,2410.3-2269.1,2413.2-2265.6,2413.2z"/>
		<path id="XMLID_589_" class="st0" d="M-2175.8,2396h-9.1c-3.7,0-6.8,3-6.8,6.8v3.6c0,3.7,3,6.8,6.8,6.8h9.1c3.7,0,6.8-3,6.8-6.8
			v-3.6C-2169,2399.1-2172,2396-2175.8,2396z M-2171.8,2406.4c0,2.2-1.8,4-4,4h-9.1c-2.2,0-4-1.8-4-4v-3.6c0-2.2,1.8-4,4-4h9.1
			c2.2,0,4,1.8,4,4V2406.4z"/>
	</g>
	<g id="XMLID_581_">
		<path id="XMLID_586_" class="st1" d="M-2310.2,2396.1c0.5-1.4-1.9-2.6-2.7-1.2c-1.6,2.9-3.9,6.4-5.6,9.2c-1.4,2.3-4.2,6.8-6.3,6
			c-1.4-0.5-0.3-3.2,0.4-5c1.1-2.8,3.1-8.1,4.8-12.6c1.4-3.7,0.7-5.9-1.4-6.8c-1.1-0.5-2.2-0.8-3.1-0.8c-0.2,0-0.4,0.1-0.4,0.3
			l-0.2,0.9c0,0.2,0,0.3,0.2,0.4c1.9,1.4,2.4,2.8,1.8,5c-0.9,3.2-4.7,12.2-5.6,14.9c-1.8,5,0.4,7.6,3.2,7.7c4.7,0.2,8.9-8.8,8.9-8.8
			c-1.8,4.7-4.8,11.9-5.4,22.1c-0.3,5.3-0.2,7.5,2.1,7.5c2.5,0,2-3.9,1.9-6.8C-2317.8,2412.1-2311,2398.1-2310.2,2396.1z"/>
		<path id="XMLID_582_" class="st1" d="M-2277.6,2406.5c-0.6-2.7-2.6-4.7-8-6.6c1.6-3,2.8-9.6-2.9-9.6c-1.8,0-3.9,1.4-4.3,4.1
			c-0.3,2.5,0.4,5.3,4.2,7.3c-2.8,5.3-6.3,9.3-12.5,10.2c-3.3,0.5-5.8-1.2-6.3-2.6c3.4,0.4,7.5-0.4,9.3-3.5c2.4-4.1-2-7.7-6.8-6.2
			c-2.1,0.7-4.4,2.6-5.4,4.7c-1,2-0.9,4.6,0,6.3c1.5,2.9,5.3,5,10.9,4c5.8-1.1,10.7-6.7,12.9-12c3.8,1.5,5.7,2.9,5.8,4.5
			c0.2,1.6-1.1,4.3-5.6,3.2c-2.3-0.6-3.3,0.1-3.5,1c-0.1,0.4,0.2,0.7,0.5,0.8C-2280.3,2415.6-2276.9,2409.7-2277.6,2406.5z
			 M-2304.2,2402.6c1.6-0.6,3.1-0.1,3.1,1.2c0,2.4-4.3,3.5-6.7,2.8C-2307.8,2406.2-2307.1,2403.7-2304.2,2402.6z M-2287.7,2399.1
			c-4-2.2-2.8-6.2-0.7-6.2C-2285.5,2393-2287.3,2398.5-2287.7,2399.1z"/>
	</g>
</g>
</svg>
